<?xml version="1.0" encoding="utf-8"?>
<!-- Generator: Adobe Illustrator 28.4.1, SVG Export Plug-In . SVG Version: 6.00 Build 0)  -->
<svg version="1.1" id="Layer_1" xmlns="http://www.w3.org/2000/svg" xmlns:xlink="http://www.w3.org/1999/xlink" x="0px" y="0px"
	 viewBox="0 0 1920 1080" style="enable-background:new 0 0 1920 1080;" xml:space="preserve">
<style type="text/css">
	.st0{display:none;}
	.st1{display:inline;fill:#A5A5A4;}
	.st2{fill:#FBFBFA;}
	.st3{fill:#2E3F49;}
	.st4{fill:#296C82;}
	.st5{fill:#0F0E0D;}
	.st6{fill:#265E76;}
	.st7{fill:#1B4354;}
	.st8{fill:#A35F50;}
	.st9{fill:#C58575;}
	.st10{fill:#132026;}
	.st11{fill:#F0CFC4;}
	.st12{fill:#F4D797;}
	.st13{fill:#B68342;}
	.st14{fill:#F0C1A8;}
	.st15{fill:#F7EDE4;}
	.st16{fill:#2E0E07;}
	.st17{fill:#54120E;}
	.st18{fill:#E09D88;}
	.st19{fill:#984B44;}
	.st20{fill:#9E5E37;}
	.st21{fill:#E2807F;}
	.st22{fill:#271C16;}
	.st23{fill:#CBC8DD;}
</style>
<g id="Background_00000090977646993994104010000007391205868895366331_" class="st0">
	<path class="st1" d="M1802-137c0,684.49,0,684.49,0,1369c-788.98,0-788.98,0-1578,0c0-684.49,0-684.49,0-1369
		C1013.02-137,1013.02-137,1802-137z"/>
</g>
<g>
	<path class="st2" d="M391.98,980.8c-0.86-0.43-7.03-1.18-10.79-4.68c13.65-75.11,13.68-134.15,94.77-178.48
		c35.41-19.36,106.58-38.08,110.18-54.15c5.98-26.69-95.88-267.87,87.84-403.09c1.73,4.17,15.6,25.88,15.41,27.41
		c-0.28,2.06-24.35,17.27-35.44,28.08c-48.6,47.3-67.37,133.72-60.1,195.19c3.61,30.54,16.67,58.34,16.95,61.5
		c0.86,9.73-15.69,28.5-3.08,74.87c1.14,4.2,11.03,19.76,10.79,21.39c-0.31,2.11-29.56,31.55-31.59,32.76
		c-8.94,5.24-97.3,24.06-137.92,67.52C408.72,892.19,416.21,934.17,391.98,980.8z"/>
	<path class="st2" d="M1557.01,979.46c-33.32-110.16-24.32-135.43-148.71-185.83c-34.98-14.17-23.89,2.38-63.95-44.79
		c29-47.41-0.25-83.72,0-93.59c0.34-12.59,38.56-70.16,0-180.49c-29.34-84.01-82.57-99.33-84.76-105.62
		c-0.59-1.66,11.1-24.84,13.87-32.76c102.26,74.84,123.59,187.33,114.04,297.47c-1.66,19.12-17.57,99.6-13.87,109.63
		c4.96,13.48,93.02,41.74,128.68,68.85c59.79,45.48,55.32,99.63,68.58,162.44C1566.16,979.09,1558.49,978.9,1557.01,979.46z"/>
	<g>
		<path class="st3" d="M1066.96,1065.03c-100.17-1.34-100.17-1.34-200.34-2.67c3.21-27.17-3.02-81.47,0.77-113.64
			c14.7,3.98,94.74,36.02,100.17,36.1c7.95,0.11,81.18-26.28,98.63-29.41C1069.95,984.01,1063.75,1044.71,1066.96,1065.03z"/>
		<g>
			<path class="st3" d="M832.72,1061.02c-59.21-2.67-117.37-10.43-175.68-18.72c10.48-76.95-2.16-77.33-13.87-1.34
				c-23.73-3.56-47.34-7.54-70.89-12.03c2.5-6.98-28.97-78.08-36.99-62.17c-1.45,2.91,22.93,41.66,23.12,59.49
				c-11.99-2.41-23.58-5.29-35.44-8.02c-0.15-5.48-33.04-67.84-35.44-46.12c10.79,21.71,10.79,21.71,21.57,43.45
				c-31.44-7.59-62.13-16.26-92.46-26.74c24.29-63.05,17.14-110.06,90.15-149.74c26.48-14.39,64.97-24.44,72.43-28.08
				c1.6-0.78,2.71-2.3,2.31-4.01c9.43,4.47,70.55,47.94,119.43,72.19c34.06,16.9,129.32,52.09,131.76,58.16
				C835.52,944.27,829.98,1040.19,832.72,1061.02z"/>
			<path class="st4" d="M620.05,805.52c0.4,1.71-0.71,3.24-2.31,4.01c-7.46,3.64-45.95,13.69-72.43,28.08
				c-73.01,39.68-65.83,86.69-90.15,149.74c-2.87-0.99-6.41-1.63-9.25-2.67c28.97-48.53,12.61-100.56,77.82-145.73
				c12.14-8.4,74.56-36.66,86.3-37.43C616.5,801.08,615.89,803.54,620.05,805.52z"/>
			<path class="st5" d="M572.28,1028.93c-4.65-0.88-9.22-1.74-13.87-2.67c-0.18-17.83-24.56-56.58-23.12-59.49
				C543.34,950.83,574.81,1021.92,572.28,1028.93z"/>
			<path class="st5" d="M657.04,1042.3c-4.41-0.64-9.4-0.67-13.87-1.34C654.88,964.97,667.52,965.34,657.04,1042.3z"/>
			<path class="st5" d="M522.97,1018.23c-3.05-0.7-7.83-1.23-13.87-2.67c-10.79-21.71-10.79-21.71-21.57-43.45
				C489.96,950.37,522.85,1012.73,522.97,1018.23z"/>
		</g>
		<g>
			<path class="st3" d="M1532.35,955.4c2.99,9.39,6.1,18.72,9.25,28.08c-28.23,8.8-56.09,16.44-84.76,24.06
				c6.16-18.37,6.16-18.37,12.33-36.77c-14.12-12.25-23.49,28.45-30.82,42.11c-6.69,1.71-13.28,3.69-20.03,5.35
				c-3.45-10.64,22.5-59.73,11.56-60.16c-8.08-0.32-28.23,54.15-25.43,62.84c-22.53,5.35-45,11.58-67.81,16.04
				c-17.88-86.13-32.92-78.51-12.33,2.67c-74.16,13.88-146.31,20.13-221.91,24.06c1.85-18.93-5.33-109.17-1.54-119.66
				c4.47-12.3,80.07-32.25,94.77-38.1c60.01-23.9,132.62-61.39,182.61-98.93c1.66,5.27,19.36,7.81,26.97,10.7
				c103.62,39.47,102.23,78.02,127.14,166.45C1548.1,986.44,1529.06,969.68,1532.35,955.4z"/>
			<path class="st5" d="M1418.32,1018.23c-6.04,1.47-11.43,2.09-13.87,2.67c-2.8-8.66,17.35-63.16,25.43-62.84
				C1440.82,958.47,1414.86,1007.59,1418.32,1018.23z"/>
			<path class="st5" d="M1336.64,1036.95c-4.13,0.8-8.26,1.93-12.33,2.67C1303.72,958.42,1318.73,950.8,1336.64,1036.95z"/>
			<path class="st5" d="M1456.84,1007.54c-6.2,1.66-12.11,3.72-18.49,5.35c7.34-13.66,16.71-54.36,30.82-42.11
				C1463.01,989.14,1463.01,989.14,1456.84,1007.54z"/>
			<path class="st6" d="M1532.35,955.4c-3.3,14.31,15.75,31.04,0,28.74c-24.9-88.4-23.52-126.98-127.14-166.45
				c-7.61-2.89-25.3-5.43-26.97-10.7c3.11-8.8,47.74,10.03,57.79,14.71C1519.53,860.66,1514.39,899.27,1532.35,955.4z"/>
		</g>
	</g>
	<g>
		<path class="st5" d="M1273.46,336.39c-2.77,7.91-14.45,31.07-13.87,32.76c2.19,6.28,55.42,21.6,84.76,105.62
			c38.56,110.32,0.34,167.89,0,180.49c-0.25,9.87,29,46.18,0,93.59c40.07,47.17,28.97,30.62,63.95,44.79
			c124.39,50.4,115.39,75.67,148.71,185.83c-8.78,3.18-14.64,3.77-15.41,4.01c-3.14-9.36-6.26-18.69-9.25-28.08
			c-17.97-56.12-12.82-94.74-96.32-133.69c-10.05-4.68-54.68-23.5-57.79-14.71c-49.96,37.54-122.61,75.03-182.61,98.93
			c-14.7,5.86-90.31,25.8-94.77,38.1c-3.79,10.48,3.39,100.72,1.54,119.66c-2.56,26.42-30.67,31.55-35.44,1.34
			c-3.21-20.29,2.99-81.02-0.77-109.63c-17.44,3.13-90.68,29.52-98.63,29.41c-5.42-0.08-85.47-32.11-100.17-36.1
			c-3.79,32.14,2.43,86.47-0.77,113.64c-3.54,30.11-29.96,28.69-33.9-1.34c-2.74-20.8,2.77-116.71,0-123.67
			c-2.43-6.04-97.7-41.26-131.76-58.16c-48.85-24.25-110-67.73-119.43-72.19c-4.19-1.98-3.54-4.44-10.02-4.01
			c-11.74,0.78-74.16,29.04-86.3,37.43c-65.22,45.16-48.85,97.2-77.82,145.73c-5.12-1.87-10.48-2.94-15.41-5.35
			c24.23-46.63,16.74-88.59,57.02-131.69c40.62-43.45,128.99-62.27,137.92-67.52c2.03-1.2,31.28-30.64,31.59-32.76
			c0.25-1.63-9.65-17.19-10.79-21.39c-12.61-46.37,3.95-65.14,3.08-74.87c-0.28-3.16-13.35-30.96-16.95-61.5
			c-7.27-61.47,11.5-147.87,60.1-195.19c11.1-10.8,35.17-26.02,35.44-28.08c0.18-1.52-13.68-23.24-15.41-27.41
			c-30.42-73.08-13.07-112.65-15.41-118.32c-1.36-3.29-17.29-3.42-18.49-8.02c18.4-66.53,60.22-84.41,61.64-89.57
			c1.33-4.89-41.95-53.85,13.1-90.24C757.76,5.85,911.13,2,966.02,4.83c56.74,2.91,131.14,16.31,177.22,46.79
			c-15.84-70.35,71.81-26.98,82.45,19.39c5.64,24.63-2.34,36.95-1.54,38.77c2.96,6.66,105.38,10.83,87.84,98.93
			c-5.55,27.92-22.35,31.53-23.12,33.42C1286.99,246.66,1295.74,272.54,1273.46,336.39z"/>
		<g>
			<g>
				<path class="st7" d="M1308.13,438c47.34,72.01,54.89,170.25,8.48,243.99c-28.14,44.71-94.1,94.9-137.15,131.02
					c30.2-9.01,85.07-53.42,106.33-74.87c19.94-20.08,36.49-42.49,50.08-66.18c21.82,39.07-24.84,77.14-57.02,101.61
					c-103.99,79.07-205.05,74.09-297.42,153.75c24.53-45.14,112.71-81.82,163.35-113.64C1307.33,711.51,1382.23,615.9,1308.13,438z"
					/>
				<path class="st7" d="M642.4,438c-41.89,111.98-39.51,192.87,48.54,285.44c74.83,78.69,248.11,163.59,261.98,185.83
					c0.37,2.35,0.37,2.35,0.77,4.68c-90.09-66.1-360.48-130.46-332.87-240.65c29.46,51.63,73.57,99.41,133.3,126.34
					C623.51,698.6,560.29,584.96,642.4,438z"/>
				<path class="st3" d="M1331.25,761.54c11.93,11.02,11.93,11.02,23.89,22.06c-1.11,16.58-220.18,101.34-252.73,105.62
					C1177.57,844.97,1266.62,818.52,1331.25,761.54z"/>
				<path class="st3" d="M628.53,758.87c52.55,55.56,134.1,75.78,198.02,118.32c-77.27-21.44-152.69-51.95-221.14-90.24
					C603.63,781.7,620.98,769.43,628.53,758.87z"/>
				<path class="st3" d="M867.39,925.99c16.58,0.13,96.32,30.54,101.71,30.75c4.99,0.19,80.57-23.4,96.32-22.06
					c0,4.68,0,4.68,0,9.36c-14.21,3.9-92.68,30.27-97.86,30.08c-5.36-0.21-84.36-31.77-100.17-33.42
					C867.39,933.34,867.39,933.34,867.39,925.99z"/>
				<path class="st8" d="M1154.8,748.17c0.22,8.1-1.42,17.86,1.54,25.4c-7.21,5.7-14.05,10.67-21.57,16.04c0-31.74,0-31.74,0-63.5
					C1161.95,730.39,1154.4,732.96,1154.8,748.17z"/>
				<path class="st9" d="M1156.34,773.57c-2.96-7.54-1.33-17.3-1.54-25.4c9.4-11.95,14.21-13.77,30.82-16.04
					c2.71,0.61,17.75,1.74,18.49,3.34C1189.26,749.19,1172.37,760.95,1156.34,773.57z"/>
				<path class="st10" d="M969.1,897.91c21.85-6.66,3.39,25.08,3.08,56.15C970.64,925.99,970.64,925.99,969.1,897.91z"/>
				<g>
					<path class="st9" d="M821.93,733.47c-0.68,13-2.84,35.4-6.16,47.46c-0.28,0.99-2.03,0.67-3.08,0.67
						c-15.29-12.86-30.97-25.24-44.69-39.44c0.31-2.83,10.45-3.9,16.95-6.02C801.56,745.53,804.86,741.35,821.93,733.47z"/>
					<path class="st8" d="M835.8,728.12c3.95,21.52-1.66,48.85-1.54,70.86c-7.43-5.78-14.39-11.34-21.57-17.38
						c1.05,0,2.8,0.32,3.08-0.67c3.33-12.06,5.49-34.47,6.16-47.46C825.57,731.78,834.38,725.71,835.8,728.12z"/>
					<path class="st11" d="M829.64,722.77c10.39,3.4,6.04,4.63,6.16,5.35c-1.45-2.38-10.23,3.66-13.87,5.35
						c-17.07,7.89-20.37,12.06-36.99,2.67C796.72,732.32,821.87,726.09,829.64,722.77z"/>
				</g>
				<path class="st3" d="M802.67,911.28c4.53,1.87,33.04,12.17,30.05,16.71C831.83,929.33,803.25,915.16,802.67,911.28z"/>
				<path class="st3" d="M1115.5,923.31c15.97-1.93-14.67,11.34-13.1,6.02C1108.94,926.31,1108.94,926.31,1115.5,923.31z"/>
			</g>
			<g>
				<path class="st2" d="M1241.1,372.49c-18.18,1.93,25.3-32.86-6.16-46.12c41.48-34.17,6.47-45.22,6.16-48.13
					c-0.15-1.36,13.65-8.16,12.33-24.06c-5.21-10.35-18.46-3.98-20.03-5.35c-3.24-2.81-0.52-33.85-42.38-68.85
					c-31.9-26.69-41.73-16.47-30.05-30.75c23.76-29.01,43.83-42.27,27.74-84.9c-1.97,12.94-1.23,23-6.16,35.43
					c-1.36,3.45-4.07,6.28-6.16,9.36c-28.63,22.41-73.14,27.51-109.41,18.72c-6.35-1.55-9.86-6.5-13.87-6.68
					c-31.13-22.75-66.97-38-107.1-45.46C920.56,70.96,799.74,61.92,779.55,65c-30.64,4.65-43.89,36.55-17.72,61.5
					c0.52,0.48,0.37,5.43,10.79,9.36c7.67,6.79,16.98,13.66,26.2,18.72c-42.13,14.52-83.62,39.17-98.63,78.21
					c-14.73,38.34,0.55,44.39,0,46.79c-0.31,1.36-5.64,1.84-7.71,6.68c-6.81,15.91,11.19,32.59,10.79,34.76
					c-0.15,0.86-10.05,6.87-9.25,14.71c1.14,11.2,32.79,16.95,7.71,31.42c-45.12-76.29-25.8-141.58-29.28-150.41
					c-1.26-3.21-13.35-5.75-13.87-9.36c20.1-62.06,60.04-72.92,61.64-77.54c4.35-12.54-98.84-102.2,147.17-112.97
					c94.37-4.14,228.63,0.16,295.88,65.51c-3.45-26.39-3.45-26.39-6.93-52.81c47.8,0.56,67.62,57.81,43.15,89.57
					c50.18,3.85,120.08,33.1,93.23,86.23c-22.81-29.15-82.05-51.9-40.84-26.07C1294.08,227.65,1271.52,322.73,1241.1,372.49z"/>
				<path class="st12" d="M818.85,178.64c-35.78,6.55-61.21,20.64-27.74,17.38c-41.27,35.96-41.39,145.14-36.99,193.86
					c-0.77,0-0.77,0-1.54,0c-25.3-13.85-54.31-29.01-40.07-6.68c-0.8-0.4-2.96-1.23-3.08-1.34c-0.65-0.59-6.26-12.25-7.71-14.71
					c25.09-14.47-6.56-20.21-7.71-31.42c-0.8-7.83,9.09-13.85,9.25-14.71c0.4-2.17-17.6-18.85-10.79-34.76
					c2.07-4.84,7.4-5.32,7.71-6.68c0.55-2.41-14.73-8.45,0-46.79c15.01-39.04,56.49-63.69,98.63-78.21
					c14.49,7.94,32.79,15.29,49.31,19.39C838.61,177.06,828.93,176.79,818.85,178.64z"/>
				<path class="st12" d="M1160.96,149.22c-11.68,14.28-1.85,4.06,30.05,30.75c41.85,35,39.11,66.04,42.38,68.85
					c1.57,1.36,14.83-5,20.03,5.35c1.33,15.91-12.48,22.7-12.33,24.06c0.31,2.91,35.32,13.96-6.16,48.13
					c31.47,13.26-12.02,48.05,6.16,46.12c-2,3.26-4.01,6.18-6.16,9.36c-14.73-0.32-30.05,7.25-36.99,18.72
					c2.22-48.45-16.18-202.01-70.89-233.3c7.71-4.41,16.95-10.86,23.12-16.71C1154.83,156.79,1155.04,149.41,1160.96,149.22z"/>
				<path class="st12" d="M1053.09,121.15c13.25,9.71,24.6,22.75,38.53,32.09c-5.39,0.59-10.97,2.78-11.56,2.67
					c-3.58-0.62-45.31-38.99-53.94-42.78c-0.77,1.34-0.77,1.34-1.54,2.67c25.8,19.71,25.8,19.71,51.62,39.44
					c-0.12,0.88-18.28,4.84-19.26,4.68c-6.07-1.07-52.18-43.88-104.79-56.15c33.9,17.06,70.15,32.92,98.63,56.15
					c-4.47,0.94-11.03,3.45-15.41,2.67c-8.69-1.52-104.08-67.54-154.1-74.87c-14.27-0.32,11.19,5.13,18.49,8.02
					c44.44,17.57,82.82,45.51,124.82,66.85c-1.54,1.34-1.54,1.34-3.08,2.67c-18.03,3.56-126.95-35.24-154.88-38.1
					c40.68,14.01,81.37,28.82,122.51,42.11c-55.57,0.03-137.43-36.66-192.63-56.15c42.22,23.98,90,39.31,135.61,57.49
					c2.16,1.39-1.76,1.71-6.16,1.34c-4.28-0.35-76.56-16.66-83.22-18.72c-37.88-11.68-61.12-30.03-64.72-30.75
					c-4.1-0.83-0.43,2.43-0.77,2.67c-4.56,3.53-6.41,6.66-6.93,6.68c-1.2,0.05-7.8-8.88-8.48-5.35
					c-26.17-24.95-12.91-56.85,17.72-61.5c20.19-3.07,141.01,5.96,166.43,10.7C986.11,83.18,1021.96,98.39,1053.09,121.15z"/>
				<path class="st12" d="M1176.37,109.11c-17.07,25.05-46.69,37.27-78.59,42.78c-15.41-12.03-15.41-12.03-30.82-24.06
					C1103.2,136.63,1147.74,131.52,1176.37,109.11z"/>
				<path class="st12" d="M1160.96,149.22c-5.89,0.16-6.13,7.54-10.79,1.34c13.41-12.67,33.13-34.68,32.36-50.8
					c4.93-12.43,4.19-22.49,6.16-35.43C1204.79,106.95,1184.72,120.24,1160.96,149.22z"/>
				<path class="st12" d="M777.24,125.16c51.81,35.16,64.54,40.56-4.62,10.7c-10.42-3.93-10.26-8.88-10.79-9.36
					c0.68-3.53,7.27,5.4,8.48,5.35C770.83,131.82,772.68,128.69,777.24,125.16z"/>
				<path class="st13" d="M1066.96,127.83c15.41,12.03,15.41,12.03,30.82,24.06c-0.92,0.16-1.63,0.83-6.16,1.34
					c-13.93-9.33-25.27-22.38-38.53-32.09C1057.1,121.36,1060.61,126.31,1066.96,127.83z"/>
				<g>
					<path class="st14" d="M1119.35,801.65c-45.65,30.94-99.67,55.19-133.3,97.6c-8.48-8.85-20.56-0.11-26.2-1.34
						c-2.37-0.53-10.17-14.2-32.36-32.09c-25.46-20.51-54.71-37.59-80.9-57.49c1.54-67.52,1.54-67.52,3.08-135.03
						c0.77,0,0.77,0,1.54,0c14.92,18.72,33.53,35.19,53.94,49.47c65.46,45.83,111.85,30.96,169.52-14.71
						c17.04-13.5,32.85-27.73,46.23-44.12C1121.91,709.75,1121.42,755.85,1119.35,801.65z"/>
					<path class="st15" d="M1185.62,732.13c-16.61,2.27-21.42,4.09-30.82,16.04c-0.4-15.19,7.15-17.78-20.03-22.06
						c0,31.74,0,31.74,0,63.5c-0.86,0.61,4.1-1.18-15.41,12.03c2.06-45.8,2.56-91.9,1.54-137.7c-0.03-1.31,0.18-2.73,0-4.01
						c6.93-5,6.93-5,13.87-10.03c1.23,12.14-1.66,64.55,0,68.18C1136.12,721.06,1179.15,730.66,1185.62,732.13z"/>
					<path class="st2" d="M849.67,673.3c-1.54,67.52-1.54,67.52-3.08,135.03c-4.16-3.16-8.2-6.15-12.33-9.36
						c-0.12-22.01,5.49-49.33,1.54-70.86c-0.12-0.72,4.22-1.95-6.16-5.35c3.3-1.42,6.84-1.47,7.71-3.34
						C842.52,708.12,830.1,645.39,849.67,673.3z"/>
					<g>
						<path class="st16" d="M1120.89,659.93c0.18,1.28-0.03,2.7,0,4.01c-13.38,16.36-29.19,30.62-46.23,44.12
							c-7.21-0.78-28.54,16.95-40.84,21.39c-32.95,11.85-73.17,10.08-106.33,0c-5.42-1.66-19.36-10.27-22.35-6.68
							c-20.4-14.28-39.02-30.75-53.94-49.47c1.54-1.34,1.54-1.34,3.08-2.67c8.91,6.07,34.12,19.36,44.69,24.06
							c42.69,19.01,68.95,25.86,117.12,14.71c31.38-7.27,78.66-32.03,103.25-50.8C1120.68,658.44,1120.74,658.92,1120.89,659.93z"/>
						<path class="st17" d="M1074.66,708.06c-57.67,45.67-104.05,60.54-169.52,14.71c2.99-3.58,16.92,5.03,22.35,6.68
							c33.16,10.08,73.38,11.85,106.33,0C1046.12,725.02,1067.45,707.29,1074.66,708.06z"/>
					</g>
				</g>
				<path class="st12" d="M752.58,389.87c-1.17,4.68-1.17,4.68-2.31,9.36c-16.52-15.35-33.32-13.88-37.76-16.04
					C698.31,360.86,727.31,376.02,752.58,389.87z"/>
				<path class="st13" d="M818.85,178.64c-4.84,6.71-10.66,2.51-27.74,17.38C757.64,199.28,783.07,185.19,818.85,178.64z"/>
				<g>
					<path class="st18" d="M749.5,454.05c0.22,0.37-0.46,3.5,6.16,6.68c0.96,13.85,0.4,27.75,1.54,41.45
						c-6.04,2.91-9.46,5.43-16.95,5.35c-22.07-24.44-35.78-53.13-36.99-84.23C726.39,438.67,726.39,438.67,749.5,454.05z"/>
					<path class="st17" d="M755.67,460.73c-6.63-3.18-5.95-6.31-6.16-6.68c-9.12-16.1-18.06-51.9-40.07-46.12
						c2.31-7.01,2.31-7.01,4.62-14.04C761.58,386.69,753.94,435.38,755.67,460.73z"/>
					<path class="st8" d="M749.5,454.05c-23.12-15.37-23.12-15.37-46.23-30.75c-0.46-11.71-2.96-21.66,10.79-29.41
						c-2.31,7.01-2.31,7.01-4.62,14.04C731.44,402.15,740.38,437.95,749.5,454.05z"/>
				</g>
				<g>
					<path class="st18" d="M1250.34,420.62c1.2,29.63-12.36,66.9-41.61,84.23c-2.96-0.24-6.47-1.63-9.25-2.67
						c-7.09-5.78-1.73-34.44-1.54-44.12c3.85-0.94,2.84-3.53,3.08-4.01C1217.7,446.96,1230.49,428.4,1250.34,420.62z"/>
					<path class="st17" d="M1238.01,393.88c-5.42,6.87,5.15,4.3,6.16,11.36c-14.95-9.92-35.69,34.73-43.15,48.8
						c-0.25,0.48,0.77,3.07-3.08,4.01C1198.32,439.34,1194.71,376.74,1238.01,393.88z"/>
					<path class="st19" d="M1250.34,420.62c-19.82,7.78-32.61,26.34-49.31,33.42c7.46-14.06,28.2-58.72,43.15-48.8
						c-1.02-7.06-11.59-4.49-6.16-11.36C1252.41,399.61,1249.88,409.28,1250.34,420.62z"/>
				</g>
				<g>
					<path class="st2" d="M709.44,381.85c0.12,0.11,2.28,0.94,3.08,1.34c4.44,2.17,21.24,0.7,37.76,16.04
						c1.14-4.68,1.14-4.68,2.31-9.36c0.77,0,0.77,0,1.54,0c1.63,17.94,5.27,29.33,9.25,46.12c0.15,0.7-6.29,5.72,4.62,11.36
						c2.8,71.45,0.83,130.83,58.56,187.84c14.18,13.98,51.1,41.15,69.35,50.14c1.54,4.68,1.54,4.68,3.08,9.36
						c-10.57-4.71-35.78-18-44.69-24.06c-65.9-44.89-91.14-97.46-97.09-168.45c-1.14-13.69-0.59-27.59-1.54-41.45
						c-1.73-25.38,5.92-74.04-41.61-66.85c-13.75,7.75-11.25,17.7-10.79,29.41c1.2,31.1,14.92,59.79,36.99,84.23
						C705.37,507.2,665.76,397.73,709.44,381.85z"/>
					<path class="st2" d="M1234.93,381.85c53.51,1.15,20.4,126.66-26.2,123c29.25-17.33,42.81-54.6,41.61-84.23
						c-0.46-11.34,2.1-21.02-12.33-26.74c-43.27-17.14-39.7,45.46-40.07,64.17c-0.19,9.68-5.55,38.34,1.54,44.12
						c-5.33,6.36-3.27,29.25-6.16,44.79c-8.26,44.15-35.57,82.33-73.97,111.63c-24.59,18.77-71.87,43.53-103.25,50.8
						c4.19-9.25,50.82-13.42,41.61-22.73c34.7-15.37,78.96-48.88,98.63-78.21c38.83-57.94,24.59-114.92,29.28-155.09
						c0.12-1.1,2.84,0.11,3.08-2.01c1.73-14.06,8.78-40.86,9.25-50.8C1204.85,389.12,1220.2,381.53,1234.93,381.85z"/>
					<path class="st20" d="M1091.61,153.23c4.53-0.51,5.24-1.18,6.16-1.34c31.9-5.51,61.52-17.73,78.59-42.78
						c2.1-3.07,4.81-5.91,6.16-9.36c0.77,16.12-18.95,38.13-32.36,50.8c-6.16,5.86-15.41,12.3-23.12,16.71
						c54.71,31.26,73.11,184.85,70.89,233.3c-0.46,9.95-7.52,36.74-9.25,50.8c-7.61,0.24-4.07-35.94-6.16-56.82
						c-2.4-24.17-9.25-48.13-12.33-72.19c-5.12-40.05,4.01-136.31-60.87-143.72c-26.11-2.97-87.44,9.76-118.66,12.03
						c-83.22,6.07-187.85-11.2-210.35,34.09c-17.04,34.33-14.02,178.8-12.33,222.6c-10.91-5.64-4.47-10.67-4.62-11.36
						c-3.98-16.79-7.61-28.18-9.25-46.12c-4.41-48.72-4.28-157.89,36.99-193.86c17.07-14.87,22.9-10.67,27.74-17.38
						c10.08-1.84,19.76-1.58,29.28-4.68c-16.52-4.09-34.83-11.44-49.31-19.39c-9.22-5.05-18.52-11.93-26.2-18.72
						c69.16,29.87,56.43,24.47,4.62-10.7c0.34-0.24-3.33-3.5,0.77-2.67c3.61,0.72,26.85,19.06,64.72,30.75
						c6.66,2.06,78.93,18.37,83.22,18.72c4.41,0.37,8.32,0.05,6.16-1.34c-45.61-18.18-93.39-33.5-135.61-57.49
						c55.2,19.49,137.03,56.18,192.63,56.15c-41.15-13.29-81.8-28.1-122.51-42.11c27.92,2.86,136.84,41.66,154.88,38.1
						c1.54-1.34,1.54-1.34,3.08-2.67c-42.01-21.31-80.38-49.28-124.82-66.85c-7.3-2.89-32.76-8.34-18.49-8.02
						c49.99,7.3,145.41,73.34,154.1,74.87c4.38,0.78,10.94-1.74,15.41-2.67c-28.48-23.24-64.72-39.09-98.63-56.15
						c52.61,12.27,98.72,55.08,104.79,56.15c0.99,0.16,19.14-3.8,19.26-4.68c-25.8-19.71-25.8-19.71-51.62-39.44
						c0.77-1.34,0.77-1.34,1.54-2.67c8.6,3.77,50.36,42.17,53.94,42.78C1080.64,156.01,1086.22,153.85,1091.61,153.23z"/>
					<path class="st15" d="M1057.71,686.67c9.22,9.31-37.42,13.48-41.61,22.73c-48.17,11.15-74.43,4.3-117.12-14.71
						c-1.54-4.68-1.54-4.68-3.08-9.36C953.44,713.65,999.65,712.42,1057.71,686.67z"/>
					<g>
						<path class="st14" d="M1188.7,451.37c-0.25,2.11-2.96,0.91-3.08,2.01c-4.68,40.16,9.55,97.14-29.28,155.09
							c-19.66,29.31-63.92,62.84-98.63,78.21c-58.07,25.75-104.27,27.01-161.81-1.34c-18.25-8.98-55.17-36.15-69.35-50.14
							C768.83,578.19,770.8,518.83,768,447.36c-1.7-43.8-4.72-188.27,12.33-222.6c22.5-45.3,127.14-28.02,210.35-34.09
							c31.22-2.27,92.56-15,118.66-12.03c64.88,7.41,55.76,103.67,60.87,143.72c3.08,24.06,9.92,48.02,12.33,72.19
							C1184.63,415.43,1181.09,451.61,1188.7,451.37z"/>
						<g>
							<path class="st5" d="M875.1,329.71c9.68-0.51,46.69-1.9,50.08,7.35c4.1,28.61-37.79,15.75-73.2,22.06
								c-30.67,5.45-58.81,34.52-59.33-6.02C799.12,340.65,860.12,330.51,875.1,329.71z"/>
							<path class="st21" d="M1073.89,472.76c48.67-5.16,54.89,33.82,20.03,41.45C1047.6,524.32,1024.36,478,1073.89,472.76z"/>
							<path class="st21" d="M859.69,472.76c59.85-3.02,31.84,54.97-18.49,41.45C814.57,507.04,819.28,474.82,859.69,472.76z"/>
							<path class="st16" d="M1060.02,563.67c1.14,1.66,1.14,1.66,2.31,3.34c-29.31,56.47-141.53,59.15-172.6,2.67
								c-1.02-13.1,19.02,18.37,45.46,27.41C982.66,613.33,1029.73,597.79,1060.02,563.67z"/>
							<path class="st17" d="M959.86,466.08c8.2-5.56,21.94,25.59-11.56,44.79c16.46,16.87,39.88,11.66,36.99,21.39
								c-13.84,8.1-53.23-11.66-46.23-26.74C940.07,503.35,964.94,498.99,959.86,466.08z"/>
							<path class="st22" d="M972.18,331.05c2.71,0.32,2.71,0.32,5.39,0.67c-0.37,50.46-0.37,50.46-0.77,100.94
								c-2.71-0.32-2.71-0.32-5.39-0.67C971.78,381.53,971.78,381.53,972.18,331.05z"/>
							<g>
								<path class="st5" d="M867.39,391.21c40.99-8.21,38.43,75.99,0,68.18C842.92,454.42,841.81,396.34,867.39,391.21z"/>
								<path class="st23" d="M876.64,411.26c19.29,5.29-5.61,21.36-5.39,3.34C873.96,412.95,873.96,412.95,876.64,411.26z"/>
							</g>
							<g>
								<path class="st5" d="M1049.24,329.71c24.56-1.15,86.3,6.07,104.02,23.4c-2.43,36.9-19.2,16.15-36.21,11.36
									c-61.95-17.46-105.5,1.85-97.86-27.41C1022.64,332.09,1042.89,330,1049.24,329.71z"/>
								<g>
									<path class="st5" d="M1075.43,389.87c38.96,1.07,29.99,74.07-3.08,69.52C1045.6,449.15,1046.4,397.31,1075.43,389.87z"/>
									<path class="st23" d="M1083.14,412.6c3.45,1.66,3.45,1.66,6.93,3.34C1089.77,430.38,1068.47,420.73,1083.14,412.6z"/>
								</g>
							</g>
						</g>
					</g>
				</g>
			</g>
		</g>
	</g>
</g>
</svg>
